<svg width="82" height="85" viewBox="0 0 82 85" fill="none" xmlns="http://www.w3.org/2000/svg">
<path d="M67.9674 21.0722C60.057 24.9137 49.6813 24.3231 40.2089 19.4907C31.6516 15.123 24.6531 8.02795 19.033 2.32738L22.5335 4.57764e-05C27.9138 5.45248 34.5113 11.2126 42.3791 15.2282C50.5185 19.3848 59.3059 19.9578 65.8741 16.7665L67.9674 21.0722ZM50.9322 45.2869L46.1894 44.6561C46.5277 42.1123 44.6393 39.3432 42.1503 38.7361C40.9349 38.4366 39.5281 38.5462 38.0433 38.6565C36.8316 38.7468 35.5737 38.8435 34.2616 38.7444C30.8325 38.4814 27.538 36.872 25.2315 34.3215C24.0688 33.0333 23.217 31.6077 22.3964 30.2227C21.469 28.6585 20.5944 27.1905 19.4029 26.2084C18.2983 25.3016 16.8476 24.792 15.4165 24.8161C14.1249 24.8425 12.7578 25.2727 11.3153 25.7334C10.2193 26.0789 9.08399 26.4423 7.87313 26.667C5.00595 27.198 2.42428 26.4908 0 24.9659L0.690743 21.4723C0.690743 21.4723 3.77058 22.6801 5.30179 22.6762C6.90588 22.6684 8.36091 22.0746 9.87249 21.5935C11.583 21.0532 13.343 20.0717 15.3362 20.0387C17.8865 19.9936 20.4792 20.8978 22.4536 22.5228C24.2885 24.0327 25.4222 25.9439 26.5192 27.79C27.2521 29.0218 27.9432 30.1851 28.7899 31.1214C30.2839 32.7711 32.4148 33.8172 34.6364 33.983C35.591 34.0565 36.6106 33.9804 37.6981 33.8972C39.494 33.7625 41.3445 33.6194 43.3003 34.0985C48.1661 35.278 51.5988 40.3058 50.9322 45.2869Z" fill="white" fill-opacity="0.1"/>
<path d="M43.2049 61.599L38.8776 63.6349C29.3169 43.2889 10.5927 37.6619 0.618001 37.0163L0.225067 33.2598C11.253 33.9711 32.6038 39.0331 43.2049 61.599Z" fill="white" fill-opacity="0.1"/>
<path d="M67.1714 8.38582L67.4165 8.06893C65.4494 8.10481 63.4703 8.00914 61.5092 7.82379C60.1758 9.42618 58.7468 10.9209 57.0727 11.9972C57.0249 12.0271 56.977 12.051 56.9292 12.0809C59.0817 12.4038 61.282 12.6549 63.5002 12.7745C64.8694 11.3455 66.0652 9.81482 67.1714 8.38582V8.38582Z" fill="white" fill-opacity="0.1"/>
<path d="M55.867 8.64523L51.861 11.2635C50.4265 9.06612 47.4956 8.33154 45.2356 8.37439C42.2974 8.43143 39.2985 9.53555 36.3966 10.6085C33.283 11.7609 29.7577 13.0654 25.9716 13.1153C19.0147 13.2111 13.1801 8.79292 10.7386 2.27637L14.2251 0.355942C15.9867 5.04681 20.8959 8.39507 25.9027 8.33093C28.863 8.29478 31.8435 7.18625 34.7341 6.1203C37.8559 4.96595 41.3894 3.6596 45.14 3.58757C49.6651 3.50504 53.7777 5.44099 55.867 8.64523ZM20.9645 61.5299C16.1871 59.6094 15.9202 55.075 15.7757 52.639C15.7601 52.3475 15.7374 51.9881 15.708 51.7302C15.3382 51.5209 14.7348 51.483 13.684 51.4622C11.9524 51.4258 9.5782 51.3693 7.86103 49.2071C6.36984 47.3267 6.97519 44.9423 7.05655 43.1613C7.1243 41.6395 6.86214 40.3418 5.82625 39.1326C4.61834 37.7247 0.637482 35.7017 0.637482 35.7017L0.734522 32.3242C0.734522 32.3242 4.82938 33.7912 6.66629 34.9359C11.8726 38.1805 11.4027 41.8963 11.3287 43.5411C11.2757 44.6775 11.2257 45.7525 11.6054 46.2286C11.8815 46.5768 12.3931 46.649 13.7976 46.6789C15.4809 46.7135 17.7905 46.772 19.5423 48.7655C20.3966 49.7347 20.4756 51.0098 20.5534 52.3546C20.6946 54.7393 20.9236 56.3615 22.7511 57.0918L20.9645 61.5299ZM36.6132 24.7422C35.0561 26.2798 33.2119 26.8425 31.6091 27.3795L30.0911 22.8404C30.0911 22.8404 32.0284 22.7726 33.9131 21.1502L36.6132 24.7422ZM11.7383 13.763L8.10859 15.6646L6.02674 11.3519L9.65965 9.44519L11.7383 13.763ZM55.3167 30.114L50.2845 32.5929L48.7585 27.3091L53.6668 26.0352L55.3167 30.114Z" fill="white" fill-opacity="0.1"/>
<path d="M44.8036 13.7894L40.9292 10.9852L43.9403 6.82379L47.8147 9.62858L44.8036 13.7894Z" fill="white" fill-opacity="0.1"/>
<path d="M81.7589 6.01236L78.8411 10.2336L75.9293 8.03926L78.847 3.82402L81.7589 6.01236Z" fill="white" fill-opacity="0.1"/>
<path d="M61.5488 61.4292C61.5488 61.4292 61.5189 60.616 61.7162 59.6056C60.2812 58.8761 58.7865 58.1826 57.1063 57.8238C56.8253 59.0675 56.9628 60.066 56.9628 60.066L61.5488 61.4292V61.4292Z" fill="white" fill-opacity="0.1"/>
<path d="M36.311 84.2284C37.1134 82.1878 36.1101 79.5864 36.1101 79.5864L40.8881 79.3767C40.8881 79.3767 42.2996 82.1537 40.9249 84.8276L36.311 84.2284ZM5.44282 52.945L7.10648 56.9612L2.68654 58.7911L1.0242 54.7751L5.44282 52.945ZM13.7344 74.4542L16.5342 70.5749C17.7454 71.4479 19.0762 72.1722 20.4713 72.7162L18.7303 77.1731C16.9581 76.4788 15.2797 75.5654 13.7344 74.4542Z" fill="white" fill-opacity="0.1"/>
<path d="M32.2476 59.8674C31.0638 61.3023 29.9636 62.821 28.9711 64.3875L24.9293 61.8285C26.0234 60.0946 27.2432 58.4144 28.5526 56.824L32.2476 59.8674V59.8674Z" fill="white" fill-opacity="0.1"/>
<path d="M40.0354 70.818C42.0145 70.6506 43.4375 70.4174 45.291 69.975L42.7618 66.824L38.9293 69.8913L40.0354 70.818V70.818Z" fill="white" fill-opacity="0.1"/>
<path d="M16.7923 34.6345L12.9293 29.8153L16.6608 26.824L20.5245 31.6431L16.7923 34.6345Z" fill="white" fill-opacity="0.1"/>
<path d="M55.1699 55.0213C53.6332 55.8584 52.1325 56.7971 50.7095 57.8136L47.9292 53.9212C49.5157 52.7871 51.1711 51.7527 52.8859 50.824L55.1699 55.0213V55.0213Z" fill="white" fill-opacity="0.1"/>
</svg>
